<svg width="1000" height="600" xmlns="http://www.w3.org/2000/svg"><defs><linearGradient id="a" gradientTransform="rotate(90)"><stop offset="5%" stop-color="#297ee0"/><stop offset="95%" stop-color="#5e9ee7"/></linearGradient><linearGradient id="b" gradientTransform="rotate(90)"><stop offset="5%" stop-color="#486bf3"/><stop offset="95%" stop-color="#7590f6"/></linearGradient><linearGradient id="c" gradientTransform="rotate(90)"><stop offset="5%" stop-color="#4758ee"/><stop offset="95%" stop-color="#7581f2"/></linearGradient><linearGradient id="d" gradientTransform="rotate(90)"><stop offset="5%" stop-color="#2743d2"/><stop offset="95%" stop-color="#5d72dd"/></linearGradient><linearGradient id="e" gradientTransform="rotate(90)"><stop offset="5%" stop-color="#072fb6"/><stop offset="95%" stop-color="#4563c8"/></linearGradient></defs><path fill="#0b90ce" d="M0 0h1000v600H0z"/><path d="M0 100c24.124-1.843 48.248-3.686 79 4 30.752 7.686 68.132 24.9 97 21 28.868-3.9 49.223-28.912 72-33 22.777-4.088 47.977 12.748 77 21 29.023 8.252 61.87 7.918 89 3 27.13-4.918 48.543-14.422 76-18 27.457-3.578 60.957-1.231 94 1s65.627 4.346 92-3c26.373-7.346 46.533-24.155 75-21 28.467 3.155 65.241 26.272 91 30 25.759 3.728 40.503-11.935 65-16 24.497-4.065 58.749 3.467 133 11l-40 500H0Z" fill="url(#a)"/><path d="M0 200c29.64 10.432 59.28 20.865 88 20 28.72-.865 56.523-13.026 81-14 24.477-.974 45.63 9.24 73 2 27.37-7.24 60.96-31.932 93-29 32.04 2.932 62.53 33.487 88 42 25.47 8.513 45.918-5.017 72-16s57.8-19.42 85-24c27.2-4.58 49.885-5.302 77-1 27.115 4.302 58.66 13.627 91 18 32.34 4.373 65.476 3.793 93 8s49.435 13.202 75 13c25.565-.202 54.782-9.601 124-19l-40 400H0Z" fill="url(#b)"/><path d="M0 300c30.09 7.164 60.178 14.327 89 13 28.822-1.327 56.376-11.145 81-9 24.624 2.145 46.32 16.253 73 17 26.68.747 58.347-11.866 85-10 26.653 1.866 48.292 18.212 79 10s70.485-40.98 103-45c32.515-4.02 57.766 20.711 83 20 25.234-.711 50.45-26.865 75-23 24.55 3.865 48.436 37.747 75 48s55.806-3.124 86-10c30.194-6.876 61.341-7.25 90-8s54.83-1.875 121-3l-40 300H0Z" fill="url(#c)"/><path d="M0 400c32.874 8.873 65.748 17.745 94 20 28.252 2.255 51.884-2.108 77-3 25.116-.892 51.718 1.687 82-5 30.282-6.687 64.243-22.64 89-31 24.757-8.36 40.31-9.13 68 0 27.69 9.13 67.519 28.156 98 34 30.481 5.844 51.615-1.496 75-11 23.385-9.504 49.02-21.17 80-15 30.98 6.17 67.304 30.18 95 38 27.696 7.82 46.764-.548 70-4 23.236-3.452 50.639-1.986 80-5 29.361-3.014 60.68-10.507 132-18l-40 200H0Z" fill="url(#d)"/><path d="M0 500c23.075 5.82 46.15 11.64 72 7 25.85-4.64 54.477-19.738 84-16 29.523 3.738 59.942 26.314 87 34s50.756.484 79-10 61.033-24.25 88-29 48.111-.487 80 8c31.889 8.487 74.522 21.198 102 24 27.478 2.802 39.8-4.304 64-10 24.2-5.696 60.28-9.98 91-11 30.72-1.02 56.078 1.225 83 6 26.922 4.775 55.406 12.078 84 12 28.594-.078 57.297-7.54 126-15l-40 100H0Z" fill="url(#e)"/></svg>